<svg xmlns="http://www.w3.org/2000/svg" viewBox="0 0 1200 630" role="img" aria-labelledby="title description">
  <title id="title">Mellow Commons</title>
  <desc id="description">Focus together. Grow at your pace.</desc>
  <defs>
    <linearGradient id="background" x1="74" y1="28" x2="1110" y2="630" gradientUnits="userSpaceOnUse"><stop stop-color="#171329"/><stop offset=".52" stop-color="#090b13"/><stop offset="1" stop-color="#09221e"/></linearGradient>
    <linearGradient id="accent" x1="0" y1="0" x2="1" y2="1"><stop stop-color="#b7adff"/><stop offset=".52" stop-color="#7461ef"/><stop offset="1" stop-color="#55d7ad"/></linearGradient>
    <radialGradient id="violetGlow"><stop stop-color="#806cf4" stop-opacity=".38"/><stop offset="1" stop-color="#806cf4" stop-opacity="0"/></radialGradient>
    <radialGradient id="mintGlow"><stop stop-color="#55d7ad" stop-opacity=".25"/><stop offset="1" stop-color="#55d7ad" stop-opacity="0"/></radialGradient>
    <filter id="softShadow" x="-30%" y="-30%" width="160%" height="180%"><feDropShadow dx="0" dy="18" stdDeviation="24" flood-color="#000" flood-opacity=".3"/></filter>
  </defs>
  <rect width="1200" height="630" fill="url(#background)"/>
  <circle cx="166" cy="60" r="320" fill="url(#violetGlow)"/>
  <circle cx="1100" cy="610" r="390" fill="url(#mintGlow)"/>
  <g transform="translate(76 70)">
    <rect width="82" height="82" rx="26" fill="url(#accent)" filter="url(#softShadow)"/>
    <path d="M18 58V36c0-12 7-20 17-20s17 8 17 20v22M35 58V39c0-12 7-20 17-20s16 8 16 20v19" fill="none" stroke="#fff" stroke-width="7" stroke-linecap="round"/>
    <circle cx="43" cy="60" r="4" fill="#dfffee"/>
    <text x="106" y="54" fill="#f7f7ff" font-size="32" font-weight="800" font-family="Inter,Arial,sans-serif">Mellow Commons</text>
  </g>
  <g transform="translate(76 215)">
    <text fill="#69dfb1" font-size="18" font-weight="800" letter-spacing="4" font-family="Inter,Arial,sans-serif">LIVE STUDY COMMUNITY</text>
    <text y="77" fill="#fff" font-size="62" font-weight="850" letter-spacing="-2" font-family="Inter,Arial,sans-serif">Focus together.</text>
    <text y="145" fill="#bdb5ff" font-size="62" font-weight="850" letter-spacing="-2" font-family="Inter,Arial,sans-serif">Grow at your pace.</text>
    <text y="203" fill="#adb5c9" font-size="23" font-family="Inter,Arial,sans-serif">Live focus rooms · social study · real progress</text>
  </g>
  <g transform="translate(790 116)" filter="url(#softShadow)">
    <rect width="338" height="398" rx="38" fill="#141827" fill-opacity=".92" stroke="#fff" stroke-opacity=".14"/>
    <text x="30" y="50" fill="#69dfb1" font-size="13" font-weight="800" letter-spacing="3" font-family="Inter,Arial,sans-serif">STUDYING NOW</text>
    <text x="30" y="90" fill="#fff" font-size="27" font-weight="800" font-family="Inter,Arial,sans-serif">Deep Focus</text>
    <g transform="translate(30 118)">
      <rect width="132" height="105" rx="22" fill="#282443"/>
      <circle cx="66" cy="48" r="26" fill="#7461ef"/>
      <circle cx="66" cy="48" r="18" fill="#a99cff"/>
      <text x="20" y="91" fill="#e9e7ff" font-size="12" font-family="Inter,Arial,sans-serif">Reading notes</text>
    </g>
    <g transform="translate(176 118)">
      <rect width="132" height="105" rx="22" fill="#173530"/>
      <circle cx="66" cy="48" r="26" fill="#319e7d"/>
      <circle cx="66" cy="48" r="18" fill="#65dfb1"/>
      <text x="20" y="91" fill="#e3fff5" font-size="12" font-family="Inter,Arial,sans-serif">Problem set</text>
    </g>
    <g transform="translate(30 238)">
      <rect width="278" height="60" rx="19" fill="#0d111c" stroke="#fff" stroke-opacity=".1"/>
      <circle cx="28" cy="30" r="6" fill="#65dfb1"/>
      <text x="47" y="36" fill="#f5f6ff" font-size="16" font-weight="700" font-family="Inter,Arial,sans-serif">24 studying now</text>
    </g>
    <g transform="translate(30 317)">
      <rect width="278" height="48" rx="16" fill="url(#accent)"/>
      <text x="139" y="31" text-anchor="middle" fill="#fff" font-size="15" font-weight="800" font-family="Inter,Arial,sans-serif">Start a focus session</text>
    </g>
  </g>
  <text x="76" y="575" fill="#777f95" font-size="17" font-family="Inter,Arial,sans-serif">joinfocusroomlive.live</text>
</svg>
